<mxfile host="app.diagrams.net" modified="2024-02-19T23:02:06.855Z" agent="Mozilla/5.0 (Windows NT 10.0; Win64; x64) AppleWebKit/537.36 (KHTML, like Gecko) Chrome/121.0.0.0 Safari/537.36" version="22.1.18" etag="o3hQbAue6yCsTuW_JfUH" type="device">
  <diagram id="C5RBs43oDa-KdzZeNtuy" name="Page-1">
    <mxGraphModel dx="1167" dy="580" grid="1" gridSize="12" guides="1" tooltips="1" connect="1" arrows="1" fold="1" page="1" pageScale="1" pageWidth="2000" pageHeight="1000" background="none" math="0" shadow="0">
      <root>
        <mxCell id="WIyWlLk6GJQsqaUBKTNV-0" />
        <mxCell id="WIyWlLk6GJQsqaUBKTNV-1" parent="WIyWlLk6GJQsqaUBKTNV-0" />
        <mxCell id="L7wKkM1lqsaKDMtwk1TP-30" value="vendas" style="swimlane;fontStyle=0;childLayout=stackLayout;horizontal=1;startSize=26;horizontalStack=0;resizeParent=1;resizeParentMax=0;resizeLast=0;collapsible=1;marginBottom=0;align=center;fontSize=14;labelBackgroundColor=none;fillColor=#5D7F99;strokeColor=#D0CEE2;fontColor=#1A1A1A;" vertex="1" parent="WIyWlLk6GJQsqaUBKTNV-1">
          <mxGeometry x="64" y="50" width="160" height="236" as="geometry" />
        </mxCell>
        <mxCell id="L7wKkM1lqsaKDMtwk1TP-31" value="codven" style="text;strokeColor=none;fillColor=none;spacingLeft=4;spacingRight=4;overflow=hidden;rotatable=0;points=[[0,0.5],[1,0.5]];portConstraint=eastwest;fontSize=12;whiteSpace=wrap;html=1;labelBackgroundColor=none;fontColor=#1A1A1A;" vertex="1" parent="L7wKkM1lqsaKDMtwk1TP-30">
          <mxGeometry y="26" width="160" height="30" as="geometry" />
        </mxCell>
        <mxCell id="L7wKkM1lqsaKDMtwk1TP-32" value="codcli" style="text;strokeColor=none;fillColor=none;spacingLeft=4;spacingRight=4;overflow=hidden;rotatable=0;points=[[0,0.5],[1,0.5]];portConstraint=eastwest;fontSize=12;whiteSpace=wrap;html=1;labelBackgroundColor=none;fontColor=#1A1A1A;" vertex="1" parent="L7wKkM1lqsaKDMtwk1TP-30">
          <mxGeometry y="56" width="160" height="30" as="geometry" />
        </mxCell>
        <mxCell id="L7wKkM1lqsaKDMtwk1TP-36" value="codcar&lt;br&gt;" style="text;whiteSpace=wrap;html=1;labelBackgroundColor=none;fontColor=#1A1A1A;" vertex="1" parent="L7wKkM1lqsaKDMtwk1TP-30">
          <mxGeometry y="86" width="160" height="40" as="geometry" />
        </mxCell>
        <mxCell id="L7wKkM1lqsaKDMtwk1TP-39" value="for(forma de pagamento)" style="text;whiteSpace=wrap;html=1;labelBackgroundColor=none;fontColor=#1A1A1A;" vertex="1" parent="L7wKkM1lqsaKDMtwk1TP-30">
          <mxGeometry y="126" width="160" height="40" as="geometry" />
        </mxCell>
        <mxCell id="L7wKkM1lqsaKDMtwk1TP-35" value="codfun" style="text;strokeColor=none;fillColor=none;spacingLeft=4;spacingRight=4;overflow=hidden;rotatable=0;points=[[0,0.5],[1,0.5]];portConstraint=eastwest;fontSize=12;whiteSpace=wrap;html=1;labelBackgroundColor=none;fontColor=#1A1A1A;" vertex="1" parent="L7wKkM1lqsaKDMtwk1TP-30">
          <mxGeometry y="166" width="160" height="30" as="geometry" />
        </mxCell>
        <mxCell id="L7wKkM1lqsaKDMtwk1TP-34" value="troco" style="text;whiteSpace=wrap;html=1;labelBackgroundColor=none;fontColor=#1A1A1A;" vertex="1" parent="L7wKkM1lqsaKDMtwk1TP-30">
          <mxGeometry y="196" width="160" height="40" as="geometry" />
        </mxCell>
        <mxCell id="L7wKkM1lqsaKDMtwk1TP-42" value="estoque" style="swimlane;fontStyle=0;childLayout=stackLayout;horizontal=1;startSize=26;horizontalStack=0;resizeParent=1;resizeParentMax=0;resizeLast=0;collapsible=1;marginBottom=0;align=center;fontSize=14;labelBackgroundColor=none;fillColor=#5D7F99;strokeColor=#D0CEE2;fontColor=#1A1A1A;" vertex="1" parent="WIyWlLk6GJQsqaUBKTNV-1">
          <mxGeometry x="341" y="49" width="160" height="166" as="geometry" />
        </mxCell>
        <mxCell id="L7wKkM1lqsaKDMtwk1TP-43" value="codes" style="text;strokeColor=none;fillColor=none;spacingLeft=4;spacingRight=4;overflow=hidden;rotatable=0;points=[[0,0.5],[1,0.5]];portConstraint=eastwest;fontSize=12;whiteSpace=wrap;html=1;labelBackgroundColor=none;fontColor=#1A1A1A;" vertex="1" parent="L7wKkM1lqsaKDMtwk1TP-42">
          <mxGeometry y="26" width="160" height="30" as="geometry" />
        </mxCell>
        <mxCell id="L7wKkM1lqsaKDMtwk1TP-44" value="codpro" style="text;strokeColor=none;fillColor=none;spacingLeft=4;spacingRight=4;overflow=hidden;rotatable=0;points=[[0,0.5],[1,0.5]];portConstraint=eastwest;fontSize=12;whiteSpace=wrap;html=1;labelBackgroundColor=none;fontColor=#1A1A1A;" vertex="1" parent="L7wKkM1lqsaKDMtwk1TP-42">
          <mxGeometry y="56" width="160" height="30" as="geometry" />
        </mxCell>
        <mxCell id="L7wKkM1lqsaKDMtwk1TP-45" value="quant(quantidade)" style="text;whiteSpace=wrap;html=1;labelBackgroundColor=none;fontColor=#1A1A1A;" vertex="1" parent="L7wKkM1lqsaKDMtwk1TP-42">
          <mxGeometry y="86" width="160" height="40" as="geometry" />
        </mxCell>
        <mxCell id="L7wKkM1lqsaKDMtwk1TP-46" value="codfor" style="text;whiteSpace=wrap;html=1;labelBackgroundColor=none;fontColor=#1A1A1A;" vertex="1" parent="L7wKkM1lqsaKDMtwk1TP-42">
          <mxGeometry y="126" width="160" height="40" as="geometry" />
        </mxCell>
        <mxCell id="L7wKkM1lqsaKDMtwk1TP-50" value="produtos" style="swimlane;fontStyle=0;childLayout=stackLayout;horizontal=1;startSize=26;horizontalStack=0;resizeParent=1;resizeParentMax=0;resizeLast=0;collapsible=1;marginBottom=0;align=center;fontSize=14;labelBackgroundColor=none;fillColor=#5D7F99;strokeColor=#D0CEE2;fontColor=#1A1A1A;" vertex="1" parent="WIyWlLk6GJQsqaUBKTNV-1">
          <mxGeometry x="622" y="374" width="160" height="206" as="geometry" />
        </mxCell>
        <mxCell id="L7wKkM1lqsaKDMtwk1TP-51" value="codpro" style="text;strokeColor=none;fillColor=none;spacingLeft=4;spacingRight=4;overflow=hidden;rotatable=0;points=[[0,0.5],[1,0.5]];portConstraint=eastwest;fontSize=12;whiteSpace=wrap;html=1;labelBackgroundColor=none;fontColor=#1A1A1A;" vertex="1" parent="L7wKkM1lqsaKDMtwk1TP-50">
          <mxGeometry y="26" width="160" height="30" as="geometry" />
        </mxCell>
        <mxCell id="L7wKkM1lqsaKDMtwk1TP-52" value="codfor" style="text;strokeColor=none;fillColor=none;spacingLeft=4;spacingRight=4;overflow=hidden;rotatable=0;points=[[0,0.5],[1,0.5]];portConstraint=eastwest;fontSize=12;whiteSpace=wrap;html=1;labelBackgroundColor=none;fontColor=#1A1A1A;" vertex="1" parent="L7wKkM1lqsaKDMtwk1TP-50">
          <mxGeometry y="56" width="160" height="30" as="geometry" />
        </mxCell>
        <mxCell id="L7wKkM1lqsaKDMtwk1TP-53" value="codes" style="text;whiteSpace=wrap;html=1;labelBackgroundColor=none;fontColor=#1A1A1A;" vertex="1" parent="L7wKkM1lqsaKDMtwk1TP-50">
          <mxGeometry y="86" width="160" height="40" as="geometry" />
        </mxCell>
        <mxCell id="L7wKkM1lqsaKDMtwk1TP-54" value="descricao" style="text;whiteSpace=wrap;html=1;labelBackgroundColor=none;fontColor=#1A1A1A;" vertex="1" parent="L7wKkM1lqsaKDMtwk1TP-50">
          <mxGeometry y="126" width="160" height="40" as="geometry" />
        </mxCell>
        <mxCell id="L7wKkM1lqsaKDMtwk1TP-55" value="preco" style="text;whiteSpace=wrap;html=1;labelBackgroundColor=none;fontColor=#1A1A1A;" vertex="1" parent="L7wKkM1lqsaKDMtwk1TP-50">
          <mxGeometry y="166" width="160" height="40" as="geometry" />
        </mxCell>
        <mxCell id="L7wKkM1lqsaKDMtwk1TP-58" value="fornecedoresÂ " style="swimlane;fontStyle=0;childLayout=stackLayout;horizontal=1;startSize=26;horizontalStack=0;resizeParent=1;resizeParentMax=0;resizeLast=0;collapsible=1;marginBottom=0;align=center;fontSize=14;labelBackgroundColor=none;fillColor=#5D7F99;strokeColor=#D0CEE2;fontColor=#1A1A1A;" vertex="1" parent="WIyWlLk6GJQsqaUBKTNV-1">
          <mxGeometry x="619" y="48" width="160" height="286" as="geometry" />
        </mxCell>
        <mxCell id="L7wKkM1lqsaKDMtwk1TP-59" value="codfor" style="text;strokeColor=none;fillColor=none;spacingLeft=4;spacingRight=4;overflow=hidden;rotatable=0;points=[[0,0.5],[1,0.5]];portConstraint=eastwest;fontSize=12;whiteSpace=wrap;html=1;labelBackgroundColor=none;fontColor=#1A1A1A;" vertex="1" parent="L7wKkM1lqsaKDMtwk1TP-58">
          <mxGeometry y="26" width="160" height="30" as="geometry" />
        </mxCell>
        <mxCell id="L7wKkM1lqsaKDMtwk1TP-60" value="endereco" style="text;strokeColor=none;fillColor=none;spacingLeft=4;spacingRight=4;overflow=hidden;rotatable=0;points=[[0,0.5],[1,0.5]];portConstraint=eastwest;fontSize=12;whiteSpace=wrap;html=1;labelBackgroundColor=none;fontColor=#1A1A1A;" vertex="1" parent="L7wKkM1lqsaKDMtwk1TP-58">
          <mxGeometry y="56" width="160" height="30" as="geometry" />
        </mxCell>
        <mxCell id="L7wKkM1lqsaKDMtwk1TP-61" value="tecell" style="text;whiteSpace=wrap;html=1;labelBackgroundColor=none;fontColor=#1A1A1A;" vertex="1" parent="L7wKkM1lqsaKDMtwk1TP-58">
          <mxGeometry y="86" width="160" height="40" as="geometry" />
        </mxCell>
        <mxCell id="L7wKkM1lqsaKDMtwk1TP-63" value="nome&amp;nbsp;" style="text;whiteSpace=wrap;html=1;labelBackgroundColor=none;fontColor=#1A1A1A;" vertex="1" parent="L7wKkM1lqsaKDMtwk1TP-58">
          <mxGeometry y="126" width="160" height="40" as="geometry" />
        </mxCell>
        <mxCell id="L7wKkM1lqsaKDMtwk1TP-64" value="verdedor" style="text;whiteSpace=wrap;html=1;labelBackgroundColor=none;fontColor=#1A1A1A;" vertex="1" parent="L7wKkM1lqsaKDMtwk1TP-58">
          <mxGeometry y="166" width="160" height="40" as="geometry" />
        </mxCell>
        <mxCell id="L7wKkM1lqsaKDMtwk1TP-65" value="produto" style="text;whiteSpace=wrap;html=1;labelBackgroundColor=none;fontColor=#1A1A1A;" vertex="1" parent="L7wKkM1lqsaKDMtwk1TP-58">
          <mxGeometry y="206" width="160" height="40" as="geometry" />
        </mxCell>
        <mxCell id="L7wKkM1lqsaKDMtwk1TP-62" value="codpro" style="text;whiteSpace=wrap;html=1;labelBackgroundColor=none;fontColor=#1A1A1A;" vertex="1" parent="L7wKkM1lqsaKDMtwk1TP-58">
          <mxGeometry y="246" width="160" height="40" as="geometry" />
        </mxCell>
        <mxCell id="L7wKkM1lqsaKDMtwk1TP-66" value="funcionarios" style="swimlane;fontStyle=0;childLayout=stackLayout;horizontal=1;startSize=26;horizontalStack=0;resizeParent=1;resizeParentMax=0;resizeLast=0;collapsible=1;marginBottom=0;align=center;fontSize=14;labelBackgroundColor=none;fillColor=#5D7F99;strokeColor=#D0CEE2;fontColor=#1A1A1A;" vertex="1" parent="WIyWlLk6GJQsqaUBKTNV-1">
          <mxGeometry x="64" y="389" width="160" height="316" as="geometry" />
        </mxCell>
        <mxCell id="L7wKkM1lqsaKDMtwk1TP-67" value="codfun" style="text;strokeColor=none;fillColor=none;spacingLeft=4;spacingRight=4;overflow=hidden;rotatable=0;points=[[0,0.5],[1,0.5]];portConstraint=eastwest;fontSize=12;whiteSpace=wrap;html=1;labelBackgroundColor=none;fontColor=#1A1A1A;" vertex="1" parent="L7wKkM1lqsaKDMtwk1TP-66">
          <mxGeometry y="26" width="160" height="30" as="geometry" />
        </mxCell>
        <mxCell id="L7wKkM1lqsaKDMtwk1TP-88" value="codven" style="text;strokeColor=none;fillColor=none;spacingLeft=4;spacingRight=4;overflow=hidden;rotatable=0;points=[[0,0.5],[1,0.5]];portConstraint=eastwest;fontSize=12;whiteSpace=wrap;html=1;labelBackgroundColor=none;fontColor=#1A1A1A;" vertex="1" parent="L7wKkM1lqsaKDMtwk1TP-66">
          <mxGeometry y="56" width="160" height="30" as="geometry" />
        </mxCell>
        <mxCell id="L7wKkM1lqsaKDMtwk1TP-68" value="cargo" style="text;strokeColor=none;fillColor=none;spacingLeft=4;spacingRight=4;overflow=hidden;rotatable=0;points=[[0,0.5],[1,0.5]];portConstraint=eastwest;fontSize=12;whiteSpace=wrap;html=1;labelBackgroundColor=none;fontColor=#1A1A1A;" vertex="1" parent="L7wKkM1lqsaKDMtwk1TP-66">
          <mxGeometry y="86" width="160" height="30" as="geometry" />
        </mxCell>
        <mxCell id="L7wKkM1lqsaKDMtwk1TP-69" value="nome" style="text;whiteSpace=wrap;html=1;labelBackgroundColor=none;fontColor=#1A1A1A;" vertex="1" parent="L7wKkM1lqsaKDMtwk1TP-66">
          <mxGeometry y="116" width="160" height="40" as="geometry" />
        </mxCell>
        <mxCell id="L7wKkM1lqsaKDMtwk1TP-70" value="email" style="text;whiteSpace=wrap;html=1;labelBackgroundColor=none;fontColor=#1A1A1A;" vertex="1" parent="L7wKkM1lqsaKDMtwk1TP-66">
          <mxGeometry y="156" width="160" height="40" as="geometry" />
        </mxCell>
        <mxCell id="L7wKkM1lqsaKDMtwk1TP-72" value="cpf" style="text;whiteSpace=wrap;html=1;labelBackgroundColor=none;fontColor=#1A1A1A;" vertex="1" parent="L7wKkM1lqsaKDMtwk1TP-66">
          <mxGeometry y="196" width="160" height="40" as="geometry" />
        </mxCell>
        <mxCell id="L7wKkM1lqsaKDMtwk1TP-73" value="telcel" style="text;whiteSpace=wrap;html=1;labelBackgroundColor=none;fontColor=#1A1A1A;" vertex="1" parent="L7wKkM1lqsaKDMtwk1TP-66">
          <mxGeometry y="236" width="160" height="40" as="geometry" />
        </mxCell>
        <mxCell id="L7wKkM1lqsaKDMtwk1TP-71" value="salario" style="text;whiteSpace=wrap;html=1;labelBackgroundColor=none;fontColor=#1A1A1A;" vertex="1" parent="L7wKkM1lqsaKDMtwk1TP-66">
          <mxGeometry y="276" width="160" height="40" as="geometry" />
        </mxCell>
        <mxCell id="L7wKkM1lqsaKDMtwk1TP-74" value="cliente" style="swimlane;fontStyle=0;childLayout=stackLayout;horizontal=1;startSize=26;horizontalStack=0;resizeParent=1;resizeParentMax=0;resizeLast=0;collapsible=1;marginBottom=0;align=center;fontSize=14;labelBackgroundColor=none;fillColor=#5D7F99;strokeColor=#D0CEE2;fontColor=#1A1A1A;" vertex="1" parent="WIyWlLk6GJQsqaUBKTNV-1">
          <mxGeometry x="341" y="396" width="160" height="246" as="geometry" />
        </mxCell>
        <mxCell id="L7wKkM1lqsaKDMtwk1TP-75" value="codcli" style="text;strokeColor=none;fillColor=none;spacingLeft=4;spacingRight=4;overflow=hidden;rotatable=0;points=[[0,0.5],[1,0.5]];portConstraint=eastwest;fontSize=12;whiteSpace=wrap;html=1;labelBackgroundColor=none;fontColor=#1A1A1A;" vertex="1" parent="L7wKkM1lqsaKDMtwk1TP-74">
          <mxGeometry y="26" width="160" height="30" as="geometry" />
        </mxCell>
        <mxCell id="L7wKkM1lqsaKDMtwk1TP-76" value="codcar" style="text;strokeColor=none;fillColor=none;spacingLeft=4;spacingRight=4;overflow=hidden;rotatable=0;points=[[0,0.5],[1,0.5]];portConstraint=eastwest;fontSize=12;whiteSpace=wrap;html=1;labelBackgroundColor=none;fontColor=#1A1A1A;" vertex="1" parent="L7wKkM1lqsaKDMtwk1TP-74">
          <mxGeometry y="56" width="160" height="30" as="geometry" />
        </mxCell>
        <mxCell id="L7wKkM1lqsaKDMtwk1TP-77" value="nome" style="text;whiteSpace=wrap;html=1;labelBackgroundColor=none;fontColor=#1A1A1A;" vertex="1" parent="L7wKkM1lqsaKDMtwk1TP-74">
          <mxGeometry y="86" width="160" height="40" as="geometry" />
        </mxCell>
        <mxCell id="L7wKkM1lqsaKDMtwk1TP-78" value="email" style="text;whiteSpace=wrap;html=1;labelBackgroundColor=none;fontColor=#1A1A1A;" vertex="1" parent="L7wKkM1lqsaKDMtwk1TP-74">
          <mxGeometry y="126" width="160" height="40" as="geometry" />
        </mxCell>
        <mxCell id="L7wKkM1lqsaKDMtwk1TP-79" value="cpf" style="text;whiteSpace=wrap;html=1;labelBackgroundColor=none;fontColor=#1A1A1A;" vertex="1" parent="L7wKkM1lqsaKDMtwk1TP-74">
          <mxGeometry y="166" width="160" height="40" as="geometry" />
        </mxCell>
        <mxCell id="L7wKkM1lqsaKDMtwk1TP-80" value="telefone" style="text;whiteSpace=wrap;html=1;labelBackgroundColor=none;fontColor=#1A1A1A;" vertex="1" parent="L7wKkM1lqsaKDMtwk1TP-74">
          <mxGeometry y="206" width="160" height="40" as="geometry" />
        </mxCell>
        <mxCell id="L7wKkM1lqsaKDMtwk1TP-82" value="cartoes" style="swimlane;fontStyle=0;childLayout=stackLayout;horizontal=1;startSize=26;horizontalStack=0;resizeParent=1;resizeParentMax=0;resizeLast=0;collapsible=1;marginBottom=0;align=center;fontSize=14;labelBackgroundColor=none;fillColor=#5D7F99;strokeColor=#D0CEE2;fontColor=#1A1A1A;" vertex="1" parent="WIyWlLk6GJQsqaUBKTNV-1">
          <mxGeometry x="341" y="265" width="160" height="126" as="geometry" />
        </mxCell>
        <mxCell id="L7wKkM1lqsaKDMtwk1TP-83" value="codcar" style="text;strokeColor=none;fillColor=none;spacingLeft=4;spacingRight=4;overflow=hidden;rotatable=0;points=[[0,0.5],[1,0.5]];portConstraint=eastwest;fontSize=12;whiteSpace=wrap;html=1;labelBackgroundColor=none;fontColor=#1A1A1A;" vertex="1" parent="L7wKkM1lqsaKDMtwk1TP-82">
          <mxGeometry y="26" width="160" height="30" as="geometry" />
        </mxCell>
        <mxCell id="L7wKkM1lqsaKDMtwk1TP-84" value="codven" style="text;strokeColor=none;fillColor=none;spacingLeft=4;spacingRight=4;overflow=hidden;rotatable=0;points=[[0,0.5],[1,0.5]];portConstraint=eastwest;fontSize=12;whiteSpace=wrap;html=1;labelBackgroundColor=none;fontColor=#1A1A1A;" vertex="1" parent="L7wKkM1lqsaKDMtwk1TP-82">
          <mxGeometry y="56" width="160" height="30" as="geometry" />
        </mxCell>
        <mxCell id="L7wKkM1lqsaKDMtwk1TP-85" value="data" style="text;whiteSpace=wrap;html=1;labelBackgroundColor=none;fontColor=#1A1A1A;" vertex="1" parent="L7wKkM1lqsaKDMtwk1TP-82">
          <mxGeometry y="86" width="160" height="40" as="geometry" />
        </mxCell>
        <mxCell id="L7wKkM1lqsaKDMtwk1TP-87" value="" style="endArrow=none;html=1;rounded=0;strokeColor=#736CA8;fontColor=#1A1A1A;entryX=0;entryY=0.5;entryDx=0;entryDy=0;exitX=0.5;exitY=0;exitDx=0;exitDy=0;" edge="1" parent="WIyWlLk6GJQsqaUBKTNV-1" source="L7wKkM1lqsaKDMtwk1TP-66" target="L7wKkM1lqsaKDMtwk1TP-35">
          <mxGeometry width="50" height="50" relative="1" as="geometry">
            <mxPoint x="132" y="384" as="sourcePoint" />
            <mxPoint x="146" y="288" as="targetPoint" />
            <Array as="points">
              <mxPoint x="144" y="336" />
              <mxPoint x="36" y="336" />
              <mxPoint x="36" y="231" />
            </Array>
          </mxGeometry>
        </mxCell>
        <mxCell id="L7wKkM1lqsaKDMtwk1TP-90" value="" style="endArrow=none;html=1;rounded=0;strokeColor=#736CA8;fontColor=#1A1A1A;entryX=0;entryY=0.5;entryDx=0;entryDy=0;exitX=1;exitY=0.5;exitDx=0;exitDy=0;" edge="1" parent="WIyWlLk6GJQsqaUBKTNV-1" source="L7wKkM1lqsaKDMtwk1TP-32">
          <mxGeometry width="50" height="50" relative="1" as="geometry">
            <mxPoint x="228" y="120" as="sourcePoint" />
            <mxPoint x="343" y="433" as="targetPoint" />
            <Array as="points">
              <mxPoint x="288" y="120" />
              <mxPoint x="288" y="192" />
              <mxPoint x="288" y="276" />
              <mxPoint x="288" y="432" />
            </Array>
          </mxGeometry>
        </mxCell>
        <mxCell id="L7wKkM1lqsaKDMtwk1TP-91" value="" style="endArrow=none;html=1;rounded=0;strokeColor=#736CA8;fontColor=#1A1A1A;exitX=1;exitY=0.75;exitDx=0;exitDy=0;entryX=0;entryY=0;entryDx=0;entryDy=0;" edge="1" parent="WIyWlLk6GJQsqaUBKTNV-1" source="L7wKkM1lqsaKDMtwk1TP-36" target="L7wKkM1lqsaKDMtwk1TP-82">
          <mxGeometry width="50" height="50" relative="1" as="geometry">
            <mxPoint x="492" y="290" as="sourcePoint" />
            <mxPoint x="542" y="240" as="targetPoint" />
            <Array as="points">
              <mxPoint x="240" y="166" />
              <mxPoint x="240" y="264" />
              <mxPoint x="312" y="263" />
            </Array>
          </mxGeometry>
        </mxCell>
        <mxCell id="L7wKkM1lqsaKDMtwk1TP-92" value="" style="endArrow=none;html=1;rounded=0;strokeColor=#736CA8;fontColor=#1A1A1A;exitX=1;exitY=0.5;exitDx=0;exitDy=0;entryX=1;entryY=0.5;entryDx=0;entryDy=0;" edge="1" parent="WIyWlLk6GJQsqaUBKTNV-1" source="L7wKkM1lqsaKDMtwk1TP-76" target="L7wKkM1lqsaKDMtwk1TP-84">
          <mxGeometry width="50" height="50" relative="1" as="geometry">
            <mxPoint x="492" y="398" as="sourcePoint" />
            <mxPoint x="542" y="348" as="targetPoint" />
            <Array as="points">
              <mxPoint x="528" y="467" />
              <mxPoint x="528" y="396" />
              <mxPoint x="528" y="336" />
            </Array>
          </mxGeometry>
        </mxCell>
        <mxCell id="L7wKkM1lqsaKDMtwk1TP-93" value="" style="endArrow=none;html=1;rounded=0;strokeColor=#736CA8;fontColor=#1A1A1A;exitX=1;exitY=0.5;exitDx=0;exitDy=0;entryX=0;entryY=0.5;entryDx=0;entryDy=0;" edge="1" parent="WIyWlLk6GJQsqaUBKTNV-1" source="L7wKkM1lqsaKDMtwk1TP-44" target="L7wKkM1lqsaKDMtwk1TP-53">
          <mxGeometry width="50" height="50" relative="1" as="geometry">
            <mxPoint x="516" y="286" as="sourcePoint" />
            <mxPoint x="566" y="236" as="targetPoint" />
            <Array as="points">
              <mxPoint x="576" y="120" />
              <mxPoint x="576" y="276" />
              <mxPoint x="576" y="432" />
              <mxPoint x="576" y="480" />
            </Array>
          </mxGeometry>
        </mxCell>
        <mxCell id="L7wKkM1lqsaKDMtwk1TP-94" value="" style="endArrow=none;html=1;rounded=0;strokeColor=#736CA8;fontColor=#1A1A1A;entryX=1;entryY=0.5;entryDx=0;entryDy=0;exitX=0;exitY=0.5;exitDx=0;exitDy=0;" edge="1" parent="WIyWlLk6GJQsqaUBKTNV-1" source="L7wKkM1lqsaKDMtwk1TP-59" target="L7wKkM1lqsaKDMtwk1TP-46">
          <mxGeometry width="50" height="50" relative="1" as="geometry">
            <mxPoint x="492" y="302" as="sourcePoint" />
            <mxPoint x="542" y="252" as="targetPoint" />
            <Array as="points">
              <mxPoint x="588" y="89" />
              <mxPoint x="588" y="195" />
            </Array>
          </mxGeometry>
        </mxCell>
        <mxCell id="L7wKkM1lqsaKDMtwk1TP-95" value="" style="endArrow=none;html=1;rounded=0;strokeColor=#736CA8;fontColor=#1A1A1A;entryX=0;entryY=0.25;entryDx=0;entryDy=0;exitX=0;exitY=0.5;exitDx=0;exitDy=0;" edge="1" parent="WIyWlLk6GJQsqaUBKTNV-1" source="L7wKkM1lqsaKDMtwk1TP-51" target="L7wKkM1lqsaKDMtwk1TP-62">
          <mxGeometry width="50" height="50" relative="1" as="geometry">
            <mxPoint x="564" y="410" as="sourcePoint" />
            <mxPoint x="614" y="360" as="targetPoint" />
            <Array as="points">
              <mxPoint x="600" y="415" />
              <mxPoint x="600" y="360" />
              <mxPoint x="600" y="304" />
            </Array>
          </mxGeometry>
        </mxCell>
        <mxCell id="L7wKkM1lqsaKDMtwk1TP-96" value="" style="endArrow=none;html=1;rounded=0;strokeColor=#736CA8;fontColor=#1A1A1A;entryX=1;entryY=0.5;entryDx=0;entryDy=0;exitX=1;exitY=0.5;exitDx=0;exitDy=0;" edge="1" parent="WIyWlLk6GJQsqaUBKTNV-1" source="L7wKkM1lqsaKDMtwk1TP-52" target="L7wKkM1lqsaKDMtwk1TP-59">
          <mxGeometry width="50" height="50" relative="1" as="geometry">
            <mxPoint x="492" y="302" as="sourcePoint" />
            <mxPoint x="542" y="252" as="targetPoint" />
            <Array as="points">
              <mxPoint x="816" y="444" />
              <mxPoint x="816" y="252" />
              <mxPoint x="816" y="89" />
            </Array>
          </mxGeometry>
        </mxCell>
      </root>
    </mxGraphModel>
  </diagram>
</mxfile>
